# xmcd
#
# Track frame offsets:
#	150
#	17905
#	37184
#	55663
#	73517
#	95059
#	120728
#	138184
#	158222
#	176399
#	194626
#	211197
#
# Disc length: 3131 seconds
#
# Revision: 1
# Processed by: cddbd v1.5.2PL0 Copyright (c) Steve Scherf et al.
# Submitted via: audiograbber 1.83.01
#
DISCID=aa0c390c
DTITLE=Mad Buffalo - Wilderness
DYEAR=2008
DGENRE=
TTITLE0=Ohio
TTITLE1=This World
TTITLE2=Little Walk
TTITLE3=Old Kentucky
TTITLE4=Destination Unknown
TTITLE5=Alkali Cold Harbor
TTITLE6=Let´s Get On With It 
TTITLE7=All I Realy Want
TTITLE8=Rainy Day
TTITLE9=Angry Town
TTITLE10=Three Rivers
TTITLE11=Pretty Boy
EXTD=
EXTT0=
EXTT1=
EXTT2=
EXTT3=
EXTT4=
EXTT5=
EXTT6=
EXTT7=
EXTT8=
EXTT9=
EXTT10=
EXTT11=
PLAYORDER=
